<svg width="18" height="18" viewBox="0 0 18 18" fill="none" xmlns="http://www.w3.org/2000/svg">
<path d="M4.84473 11.4512L4.84863 11.4502M4.84473 11.4512L4.84863 11.4482M4.84473 11.4512L4.84863 11.4502M4.84473 11.4512L4.84863 11.4482M4.84863 11.4502V11.4482M4.84863 11.4502V11.4482M9 0.5C11.2543 0.5 13.4167 1.39518 15.0107 2.98926L15.3008 3.29492C16.7127 4.85418 17.5 6.88644 17.5 9C17.5 10.6811 17.0014 12.3248 16.0674 13.7227C15.1917 15.0331 13.9702 16.0727 12.541 16.7275L12.2529 16.8525C10.6998 17.4959 8.9906 17.6649 7.3418 17.3369C5.79584 17.0294 4.36783 16.2983 3.21582 15.2285L2.98926 15.0107C1.87481 13.8963 1.09398 12.4952 0.730469 10.9658L0.663086 10.6582C0.335117 9.00941 0.504143 7.30022 1.14746 5.74707L1.27246 5.45898C1.92735 4.02988 2.96692 2.80833 4.27734 1.93262L4.54297 1.7627C5.88139 0.938444 7.42399 0.500006 9 0.5ZM9.00098 8.56055C7.52448 8.38526 6.02749 8.50762 4.59863 8.91895L4.55078 8.93262L4.50195 8.93652L4.44336 8.95508C4.42553 8.9656 4.41084 8.98022 4.39941 8.99707C4.38783 9.01417 4.38004 9.03331 4.37695 9.05371C4.3739 9.07394 4.37497 9.09461 4.38086 9.11426L4.41113 9.16797L4.46191 9.20312C4.48103 9.2108 4.50187 9.21418 4.52246 9.21289L4.58105 9.19531L4.63184 9.16699L4.68848 9.15137C7.31532 8.40768 10.1181 8.66948 12.5537 9.87402L13.0361 10.1279L13.043 10.1318L13.0928 10.1484C13.1099 10.151 13.1274 10.1505 13.1445 10.1465C13.1752 10.1392 13.2005 10.1202 13.2197 10.0957C13.2251 10.0839 13.2306 10.0723 13.2324 10.0596L13.2305 10.0078C13.2225 9.97448 13.2018 9.94607 13.1738 9.92676C12.0487 9.29114 10.8232 8.85629 9.55176 8.64062L9.00098 8.56055ZM9.15918 5.79004C7.42577 5.64936 5.72157 5.78984 4.40918 6.14258L4.15234 6.21582C4.10518 6.23014 4.06398 6.25836 4.0332 6.2959L4.00586 6.33594C3.975 6.39376 3.96827 6.46171 3.9873 6.52441L4.00586 6.56934C4.02874 6.61212 4.06404 6.6477 4.10742 6.6709L4.15234 6.68945C4.19876 6.70355 4.24882 6.70371 4.2959 6.68945L4.5459 6.61816C5.81988 6.2758 7.45889 6.14896 9.0918 6.27734C10.7514 6.40784 12.4568 6.80715 13.7969 7.55566L13.9531 7.63281C14.0086 7.66018 14.0725 7.66581 14.1318 7.64844L14.1748 7.63086C14.2157 7.60996 14.2505 7.57799 14.2744 7.53809L14.2939 7.49707C14.3046 7.46832 14.3101 7.43787 14.3096 7.40723L14.3047 7.36133C14.293 7.30516 14.2612 7.25555 14.2168 7.21973C12.8214 6.40196 10.9982 5.9393 9.15918 5.79004Z" fill="#1ED760" stroke="black"/>
</svg>
