<svg width="18" height="18" viewBox="0 0 18 18" fill="none" xmlns="http://www.w3.org/2000/svg">
<path d="M4.84485 11.4513L4.84875 11.4503M4.84485 11.4513L4.84875 11.4484M4.84485 11.4513L4.84875 11.4503M4.84485 11.4513L4.84875 11.4484M4.84875 11.4503V11.4484M4.84875 11.4503V11.4484M9.00012 0.500122C11.2545 0.500122 13.4168 1.3953 15.0109 2.98938C16.6049 4.58342 17.5001 6.74576 17.5001 9.00012C17.5001 10.6813 17.0015 12.325 16.0675 13.7228C15.1336 15.1204 13.806 16.2093 12.2531 16.8527C10.6999 17.496 8.99072 17.665 7.34192 17.337C5.69308 17.0091 4.17813 16.1996 2.98938 15.0109C1.80062 13.8221 0.991156 12.3072 0.663208 10.6583C0.335239 9.00954 0.504265 7.30035 1.14758 5.74719C1.79094 4.19426 2.87988 2.8667 4.27747 1.93274C5.67529 0.998775 7.31896 0.500128 9.00012 0.500122ZM9.0011 8.56067C7.5246 8.38539 6.02761 8.50775 4.59875 8.91907L4.5509 8.93274L4.50208 8.93665C4.48176 8.93833 4.46156 8.94464 4.44348 8.9552C4.42565 8.96573 4.41096 8.98034 4.39954 8.99719C4.38796 9.01429 4.38016 9.03343 4.37708 9.05383C4.37402 9.07406 4.37509 9.09474 4.38098 9.11438C4.387 9.13411 4.39739 9.15293 4.41125 9.16809L4.46204 9.20325C4.48115 9.21092 4.50199 9.2143 4.52258 9.21301C4.54311 9.2117 4.56329 9.20542 4.58118 9.19543L4.63196 9.16711L4.6886 9.15149C7.31544 8.4078 10.1182 8.6696 12.5538 9.87415L13.0363 10.1281L13.0431 10.132C13.0738 10.1497 13.1103 10.1547 13.1447 10.1466C13.1753 10.1393 13.2007 10.1203 13.2198 10.0958C13.2324 10.0681 13.2377 10.0379 13.2306 10.0079C13.2226 9.9746 13.2019 9.94619 13.174 9.92688C11.8871 9.1999 10.4689 8.73489 9.0011 8.56067ZM9.1593 5.79016C7.4259 5.64948 5.72169 5.78996 4.4093 6.1427L4.15247 6.21594C4.1053 6.23026 4.0641 6.25848 4.03333 6.29602L4.00598 6.33606C3.97512 6.39388 3.96839 6.46184 3.98743 6.52454C4.00647 6.58728 4.04978 6.64013 4.10754 6.67102C4.16531 6.70189 4.23338 6.70854 4.29602 6.68958L4.54602 6.61829C5.82001 6.27592 7.45901 6.14908 9.09192 6.27747C10.7516 6.40796 12.4569 6.80727 13.797 7.55579L13.9532 7.63293C14.0087 7.6603 14.0726 7.66593 14.132 7.64856L14.1749 7.63098C14.2158 7.61008 14.2506 7.57811 14.2745 7.53821C14.3063 7.4851 14.3172 7.42199 14.3048 7.36145C14.2931 7.30528 14.2613 7.25567 14.2169 7.21985C12.8215 6.40208 10.9983 5.93943 9.1593 5.79016Z" fill="#1ED760" stroke="black"/>
</svg>
